<?xml version="1.0" encoding="UTF-8" standalone="no"?><!DOCTYPE svg PUBLIC "-//W3C//DTD SVG 1.1//EN" "http://www.w3.org/Graphics/SVG/1.1/DTD/svg11.dtd"><svg width="100%" height="100%" viewBox="0 0 46 66" version="1.1" xmlns="http://www.w3.org/2000/svg" xmlns:xlink="http://www.w3.org/1999/xlink" xml:space="preserve" xmlns:serif="http://www.serif.com/" style="fill-rule:evenodd;clip-rule:evenodd;stroke-linejoin:round;stroke-miterlimit:2;"><rect id="Artboard1" x="0" y="0" width="45.064" height="66" style="fill:none;"/><clipPath id="_clip1"><rect x="0" y="0" width="45.064" height="66"/></clipPath><g clip-path="url(#_clip1)"><path d="M22.545,0c12.442,0 22.544,10.102 22.544,22.545c0,20.865 -22.445,43.165 -22.544,43.455c-0.217,-0.217 -22.545,-23.316 -22.545,-43.455c0,-12.443 10.102,-22.545 22.545,-22.545Zm0,10.964c6.391,0 11.581,5.189 11.581,11.581c0,6.391 -5.19,11.58 -11.581,11.58c-6.392,0 -11.581,-5.189 -11.581,-11.58c0,-6.392 5.189,-11.581 11.581,-11.581Z" style="fill:#a6a6a6;"/></g></svg>