<?xml version="1.0" encoding="UTF-8" standalone="no"?><!DOCTYPE svg PUBLIC "-//W3C//DTD SVG 1.1//EN" "http://www.w3.org/Graphics/SVG/1.1/DTD/svg11.dtd"><svg width="100%" height="100%" viewBox="0 0 17 17" version="1.1" xmlns="http://www.w3.org/2000/svg" xmlns:xlink="http://www.w3.org/1999/xlink" xml:space="preserve" xmlns:serif="http://www.serif.com/" style="fill-rule:evenodd;clip-rule:evenodd;stroke-linejoin:round;stroke-miterlimit:2;"><path id="Capa_2-2" d="M16.89,12.67l0,2.55c0,0.929 -0.761,1.695 -1.69,1.7l-0.2,0c-2.614,-0.278 -5.125,-1.169 -7.33,-2.6c-2.05,-1.31 -3.79,-3.05 -5.1,-5.1c-1.423,-2.221 -2.303,-4.746 -2.57,-7.37c-0.005,-0.055 -0.008,-0.11 -0.008,-0.165c0,-0.878 0.683,-1.617 1.558,-1.685l2.69,0c0.849,-0.008 1.58,0.62 1.7,1.46c0.109,0.817 0.31,1.619 0.6,2.39c0.23,0.621 0.077,1.321 -0.39,1.79l-1.07,1.08c1.211,2.121 2.969,3.879 5.09,5.09l1.08,-1.08c0.464,-0.446 1.143,-0.593 1.75,-0.38c0.771,0.29 1.573,0.491 2.39,0.6c0.863,0.102 1.516,0.851 1.5,1.72Z" style="fill:#b06d86;fill-rule:nonzero;"/></svg>