<?xml version="1.0" encoding="UTF-8" standalone="no"?><!DOCTYPE svg PUBLIC "-//W3C//DTD SVG 1.1//EN" "http://www.w3.org/Graphics/SVG/1.1/DTD/svg11.dtd"><svg width="100%" height="100%" viewBox="0 0 63 66" version="1.1" xmlns="http://www.w3.org/2000/svg" xmlns:xlink="http://www.w3.org/1999/xlink" xml:space="preserve" xmlns:serif="http://www.serif.com/" style="fill-rule:evenodd;clip-rule:evenodd;stroke-linejoin:round;stroke-miterlimit:2;"><path d="M31.378,3.696c0.511,0.07 0.995,0.227 1.443,0.473l26.866,16.141c0.624,0.408 0.686,0.528 0.882,0.791c0.932,1.251 0.813,2.852 -0.893,3.956l-26.867,15.99c-1.115,0.608 -2.5,0.612 -3.629,-0.026l-25.954,-15.99c-1.947,-1.305 -1.26,-3.162 -1.176,-3.359c0.632,-1.491 1.164,-1.336 1.164,-1.336l25.954,-16.141c0,0 1.12,-0.569 2.21,-0.499Z" style="fill:#a6a6a6;"/><path d="M57.333,29.3l2.354,1.415c0.624,0.407 0.686,0.527 0.882,0.79c0.932,1.251 0.813,2.852 -0.893,3.956l-26.867,15.99c-1.115,0.608 -2.5,0.612 -3.629,-0.026l-25.954,-15.99c-1.988,-1.333 -1.259,-3.164 -1.176,-3.358c0.632,-1.491 3.461,-2.765 3.461,-2.765l22.557,13.897c1.792,0.993 4.05,0.991 5.826,0.042l23.439,-13.951Z" style="fill:#a6a6a6;"/><path d="M57.333,39.705l2.354,1.414c0.624,0.407 0.686,0.528 0.882,0.79c0.932,1.251 0.813,2.853 -0.893,3.957l-26.867,15.99c-1.115,0.608 -2.5,0.612 -3.629,-0.026l-25.954,-15.99c-1.988,-1.334 -1.259,-3.164 -1.176,-3.359c0.632,-1.491 3.461,-2.764 3.461,-2.764l22.557,13.896c1.792,0.994 4.05,0.991 5.826,0.042l23.439,-13.95Z" style="fill:#a6a6a6;"/></svg>