<?xml version="1.0" encoding="UTF-8" standalone="no"?><!DOCTYPE svg PUBLIC "-//W3C//DTD SVG 1.1//EN" "http://www.w3.org/Graphics/SVG/1.1/DTD/svg11.dtd"><svg width="100%" height="100%" viewBox="0 0 140 136" version="1.1" xmlns="http://www.w3.org/2000/svg" xmlns:xlink="http://www.w3.org/1999/xlink" xml:space="preserve" xmlns:serif="http://www.serif.com/" style="fill-rule:evenodd;clip-rule:evenodd;stroke-linejoin:round;stroke-miterlimit:2;"><rect id="Artboard1" x="0" y="0" width="139.135" height="135.721" style="fill:none;"/><clipPath id="_clip1"><rect x="0" y="0" width="139.135" height="135.721"/></clipPath><g clip-path="url(#_clip1)"><path d="M58.75,1.009c0.416,0.075 0.794,0.249 1.124,0.526l52.775,52.774c0.315,0.37 0.497,0.804 0.533,1.301l-0.217,29.127l26.019,26.287c0,0 0.474,0.621 0.526,1.28l0,20.066c-0.17,1.836 -3.405,2.534 -3.64,0l0,-19.318l-22.943,-23.179l-0.316,42.511c-0.139,1.466 -0.476,1.689 -1.82,1.806l-38.979,0c-1.475,-0.129 -1.702,-0.47 -1.82,-1.82l0,-24.724l-20.166,0l0,24.724c-0.129,1.475 -0.47,1.702 -1.82,1.82l-25.502,0c-1.475,-0.129 -1.702,-0.47 -1.82,-1.82l0,-89.465l-17.044,16.872l0,72.607c-0.173,1.87 -3.388,2.718 -3.64,0l0,-73.366c0.038,-0.484 0.217,-0.919 0.54,-1.293l20.144,-19.942l0,-29.053c0,0 0.116,-1.671 1.82,-1.82l12.669,0c0.484,0.038 0.919,0.217 1.294,0.54l7.353,7.429l13.487,-13.35c0,0 0.141,-0.523 1.443,-0.52Zm-34.426,38.292l0,91.249l21.862,0l0,-24.724c0,0 0.116,-1.671 1.82,-1.82l23.806,0c1.475,0.129 1.702,0.47 1.82,1.82l0,24.724l35.352,0l0.33,-44.327l-65.52,-66.196c-6.49,6.425 -12.98,12.85 -19.47,19.274Zm22.057,-21.835l62.971,63.621l0.184,-24.743l-50.955,-50.955c-4.067,4.026 -8.134,8.052 -12.2,12.077Zm-22.057,16.713l16.909,-16.739l-6.819,-6.89l-10.09,0l0,23.629Z" style="fill:#fff;"/></g></svg>