<svg width="100%" height="100%" viewBox="0 0 275 349" version="1.1" xmlns="http://www.w3.org/2000/svg" xmlns:xlink="http://www.w3.org/1999/xlink" xml:space="preserve" style="fill-rule:evenodd;clip-rule:evenodd;stroke-linecap:round;stroke-linejoin:round;stroke-miterlimit:1.5;"><g><path d="M75.668,184.705l7.84,0l0,0.926l-6.875,0l0,5.772l6.087,0l0,0.906l-6.087,0l0,6.382l-0.965,0l0,-13.986Z" style="fill:#fff;fill-rule:nonzero;"></path><rect x="88.039" y="184.705" width="0.965" height="13.986" style="fill:#fff;fill-rule:nonzero;"></rect><path d="M106.142,199.026l-11.032,-12.43l0.257,-0.197l0.019,12.292l-0.945,0l0,-14.281l0.059,0l11.031,12.528l-0.256,0.079l-0.02,-12.312l0.926,0l0,14.321l-0.039,0Z" style="fill:#fff;fill-rule:nonzero;"></path><path d="M121.664,197.765c-0.302,0.184 -0.65,0.361 -1.044,0.532c-0.394,0.171 -0.827,0.306 -1.3,0.404c-0.472,0.099 -0.985,0.148 -1.536,0.148c-1.064,0 -2.029,-0.187 -2.896,-0.562c-0.867,-0.374 -1.609,-0.886 -2.226,-1.536c-0.617,-0.65 -1.093,-1.399 -1.428,-2.246c-0.335,-0.847 -0.502,-1.75 -0.502,-2.708c0,-1.025 0.177,-1.977 0.531,-2.857c0.355,-0.88 0.854,-1.648 1.498,-2.304c0.643,-0.657 1.392,-1.169 2.245,-1.537c0.854,-0.368 1.78,-0.552 2.778,-0.552c0.735,0 1.425,0.099 2.068,0.296c0.644,0.197 1.228,0.453 1.753,0.768l-0.413,0.887c-0.46,-0.289 -0.979,-0.532 -1.557,-0.729c-0.577,-0.197 -1.188,-0.296 -1.832,-0.296c-0.827,0 -1.608,0.161 -2.344,0.483c-0.735,0.322 -1.382,0.768 -1.94,1.339c-0.558,0.572 -0.995,1.238 -1.31,2c-0.315,0.762 -0.473,1.582 -0.473,2.462c0,0.841 0.141,1.635 0.424,2.384c0.282,0.748 0.689,1.405 1.221,1.97c0.532,0.564 1.172,1.008 1.921,1.329c0.748,0.322 1.582,0.483 2.501,0.483c0.683,0 1.31,-0.095 1.882,-0.286c0.571,-0.19 1.08,-0.43 1.526,-0.719l0.453,0.847Z" style="fill:#fff;fill-rule:nonzero;"></path><path d="M124.994,198.691l5.909,-14.597l0.079,0l5.91,14.597l-1.084,0l-5.141,-13.06l0.67,-0.374l-5.378,13.434l-0.965,0Zm2.856,-5.535l6.205,0l0.276,0.906l-6.718,0l0.237,-0.906Z" style="fill:#fff;fill-rule:nonzero;"></path><path d="M148.1,186.281c-0.407,-0.197 -0.906,-0.381 -1.497,-0.552c-0.591,-0.17 -1.182,-0.256 -1.773,-0.256c-0.919,0 -1.654,0.23 -2.206,0.69c-0.552,0.459 -0.827,1.037 -0.827,1.733c0,0.526 0.157,0.962 0.472,1.31c0.316,0.348 0.729,0.644 1.241,0.887c0.513,0.243 1.058,0.476 1.635,0.699c0.46,0.171 0.916,0.361 1.369,0.571c0.454,0.21 0.864,0.466 1.232,0.768c0.367,0.303 0.66,0.677 0.876,1.123c0.217,0.447 0.325,0.998 0.325,1.655c0,0.775 -0.184,1.461 -0.551,2.059c-0.368,0.597 -0.88,1.06 -1.537,1.388c-0.656,0.329 -1.418,0.493 -2.285,0.493c-0.696,0 -1.33,-0.086 -1.901,-0.256c-0.571,-0.171 -1.07,-0.371 -1.497,-0.601c-0.427,-0.23 -0.765,-0.424 -1.014,-0.581l0.453,-0.788c0.289,0.21 0.64,0.42 1.054,0.63c0.413,0.21 0.863,0.388 1.349,0.532c0.486,0.144 0.972,0.217 1.458,0.217c0.564,0 1.113,-0.112 1.645,-0.335c0.531,-0.223 0.971,-0.562 1.319,-1.015c0.348,-0.453 0.522,-1.027 0.522,-1.723c0,-0.67 -0.164,-1.212 -0.492,-1.625c-0.328,-0.414 -0.749,-0.752 -1.261,-1.015c-0.512,-0.263 -1.057,-0.499 -1.635,-0.709c-0.446,-0.171 -0.893,-0.351 -1.339,-0.542c-0.447,-0.19 -0.854,-0.42 -1.222,-0.689c-0.367,-0.269 -0.66,-0.595 -0.876,-0.975c-0.217,-0.381 -0.325,-0.841 -0.325,-1.379c0,-0.67 0.17,-1.254 0.512,-1.753c0.341,-0.5 0.804,-0.89 1.389,-1.173c0.584,-0.282 1.25,-0.43 1.999,-0.443c0.657,0 1.323,0.086 1.999,0.256c0.677,0.171 1.264,0.388 1.764,0.65l-0.375,0.749Z" style="fill:#fff;fill-rule:nonzero;"></path></g><g><path d="M74.576,162.23c0,-1.492 0.289,-2.899 0.867,-4.221c0.577,-1.322 1.383,-2.496 2.417,-3.52c1.033,-1.024 2.224,-1.829 3.572,-2.416c1.347,-0.586 2.801,-0.88 4.362,-0.88c1.54,0 2.984,0.294 4.332,0.88c1.348,0.587 2.544,1.392 3.587,2.416c1.044,1.024 1.86,2.198 2.448,3.52c0.587,1.322 0.881,2.729 0.881,4.221c0,1.531 -0.294,2.962 -0.881,4.295c-0.588,1.332 -1.404,2.5 -2.448,3.504c-1.043,1.005 -2.239,1.79 -3.587,2.357c-1.348,0.566 -2.792,0.85 -4.332,0.85c-1.561,0 -3.015,-0.279 -4.362,-0.835c-1.348,-0.557 -2.539,-1.333 -3.572,-2.327c-1.034,-0.994 -1.84,-2.157 -2.417,-3.49c-0.578,-1.332 -0.867,-2.784 -0.867,-4.354Zm3.04,0.029c0,1.134 0.213,2.193 0.639,3.177c0.425,0.984 1.013,1.854 1.763,2.61c0.75,0.755 1.621,1.347 2.614,1.775c0.993,0.427 2.068,0.641 3.223,0.641c1.135,0 2.199,-0.214 3.192,-0.641c0.993,-0.428 1.854,-1.02 2.584,-1.775c0.729,-0.756 1.307,-1.626 1.733,-2.61c0.425,-0.984 0.638,-2.053 0.638,-3.206c0,-1.134 -0.213,-2.203 -0.638,-3.207c-0.426,-1.004 -1.014,-1.884 -1.764,-2.64c-0.749,-0.755 -1.621,-1.347 -2.614,-1.774c-0.993,-0.428 -2.057,-0.642 -3.192,-0.642c-1.155,0 -2.229,0.219 -3.222,0.657c-0.993,0.437 -1.865,1.034 -2.615,1.789c-0.75,0.756 -1.327,1.636 -1.733,2.64c-0.405,1.004 -0.608,2.073 -0.608,3.206Z" style="fill:#fff;fill-rule:nonzero;"></path><path d="M117.744,155.28c-0.75,-0.378 -1.571,-0.706 -2.462,-0.985c-0.892,-0.278 -1.764,-0.417 -2.615,-0.417c-1.175,0 -2.113,0.268 -2.812,0.805c-0.699,0.537 -1.049,1.253 -1.049,2.148c0,0.676 0.223,1.248 0.669,1.715c0.446,0.467 1.034,0.87 1.763,1.208c0.73,0.338 1.49,0.656 2.28,0.954c0.689,0.259 1.368,0.547 2.037,0.865c0.669,0.318 1.272,0.716 1.809,1.193c0.537,0.478 0.963,1.064 1.277,1.76c0.314,0.696 0.471,1.561 0.471,2.595c0,1.134 -0.289,2.168 -0.866,3.102c-0.578,0.935 -1.404,1.671 -2.478,2.207c-1.074,0.537 -2.351,0.806 -3.83,0.806c-0.973,0 -1.9,-0.11 -2.782,-0.328c-0.882,-0.219 -1.697,-0.502 -2.447,-0.85c-0.75,-0.348 -1.419,-0.711 -2.007,-1.089l1.307,-2.267c0.487,0.338 1.044,0.661 1.673,0.969c0.628,0.309 1.286,0.557 1.976,0.746c0.689,0.189 1.357,0.283 2.006,0.283c0.689,0 1.373,-0.124 2.052,-0.372c0.679,-0.249 1.241,-0.632 1.687,-1.149c0.446,-0.517 0.669,-1.203 0.669,-2.058c0,-0.736 -0.198,-1.347 -0.593,-1.834c-0.395,-0.487 -0.917,-0.905 -1.565,-1.253c-0.649,-0.348 -1.338,-0.661 -2.068,-0.94c-0.689,-0.258 -1.388,-0.541 -2.097,-0.85c-0.71,-0.308 -1.368,-0.686 -1.976,-1.133c-0.608,-0.447 -1.095,-0.999 -1.46,-1.655c-0.364,-0.657 -0.547,-1.452 -0.547,-2.387c0,-1.133 0.279,-2.122 0.836,-2.967c0.558,-0.846 1.323,-1.512 2.296,-1.999c0.972,-0.487 2.087,-0.751 3.344,-0.79c1.418,0 2.67,0.169 3.754,0.507c1.084,0.338 2.042,0.755 2.873,1.253l-1.125,2.207Z" style="fill:#fff;fill-rule:nonzero;"></path><path d="M147.475,173.683l-16.994,-16.912l0.851,0.209l0.061,16.017l-2.949,0l0,-22.221l0.152,0l16.812,16.972l-0.7,-0.15l-0.06,-16.166l2.918,0l0,22.251l-0.091,0Z" style="fill:#fff;fill-rule:nonzero;"></path><path d="M156.898,162.23c0,-1.492 0.289,-2.899 0.867,-4.221c0.577,-1.322 1.383,-2.496 2.416,-3.52c1.034,-1.024 2.225,-1.829 3.572,-2.416c1.348,-0.586 2.802,-0.88 4.363,-0.88c1.54,0 2.984,0.294 4.332,0.88c1.348,0.587 2.543,1.392 3.587,2.416c1.044,1.024 1.86,2.198 2.447,3.52c0.588,1.322 0.882,2.729 0.882,4.221c0,1.531 -0.294,2.962 -0.882,4.295c-0.587,1.332 -1.403,2.5 -2.447,3.504c-1.044,1.005 -2.239,1.79 -3.587,2.357c-1.348,0.566 -2.792,0.85 -4.332,0.85c-1.561,0 -3.015,-0.279 -4.363,-0.835c-1.347,-0.557 -2.538,-1.333 -3.572,-2.327c-1.033,-0.994 -1.839,-2.157 -2.416,-3.49c-0.578,-1.332 -0.867,-2.784 -0.867,-4.354Zm3.04,0.029c0,1.134 0.213,2.193 0.639,3.177c0.425,0.984 1.013,1.854 1.763,2.61c0.75,0.755 1.621,1.347 2.614,1.775c0.993,0.427 2.067,0.641 3.223,0.641c1.135,0 2.199,-0.214 3.192,-0.641c0.993,-0.428 1.854,-1.02 2.584,-1.775c0.729,-0.756 1.307,-1.626 1.733,-2.61c0.425,-0.984 0.638,-2.053 0.638,-3.206c0,-1.134 -0.213,-2.203 -0.638,-3.207c-0.426,-1.004 -1.014,-1.884 -1.764,-2.64c-0.75,-0.755 -1.621,-1.347 -2.614,-1.774c-0.993,-0.428 -2.057,-0.642 -3.192,-0.642c-1.155,0 -2.229,0.219 -3.223,0.657c-0.993,0.437 -1.864,1.034 -2.614,1.789c-0.75,0.756 -1.327,1.636 -1.733,2.64c-0.405,1.004 -0.608,2.073 -0.608,3.206Z" style="fill:#fff;fill-rule:nonzero;"></path><path d="M188.696,151.432l2.949,0l0,18.791l11.157,0l0,2.774l-14.106,0l0,-21.565Z" style="fill:#fff;fill-rule:nonzero;"></path><path d="M209.793,172.997l9.607,-22.46l0.182,0l9.576,22.46l-3.374,0l-7.175,-17.926l2.098,-1.342l-8.026,19.268l-2.888,0Zm5.624,-8.173l8.178,0l0.973,2.506l-10.002,0l0.851,-2.506Z" style="fill:#fff;fill-rule:nonzero;"></path></g><path d="M54.461,171.839l0,-113.821l56.767,-56.196l52.775,52.774l-0.571,76.774l-38.979,0l0,-26.544l-23.806,0l0,26.544l-25.502,0l0,-123.64l12.669,0l102.517,103.574l0,20.066" style="fill:none;stroke:#fff;stroke-width:3.64px;"></path><g><path d="M0,286.904l13.018,0l0,2.576l-10.331,0l0,6.093l9.223,0l0,2.576l-9.223,0l0,6.204l10.719,0l0,2.576l-13.406,0l0,-20.025Z" style="fill:#fff;fill-rule:nonzero;"></path><path d="M35.397,307.566l-15.483,-15.704l0.776,0.194l0.055,14.873l-2.686,0l0,-20.634l0.138,0l15.317,15.76l-0.637,-0.139l-0.056,-15.012l2.659,0l0,20.662l-0.083,0Z" style="fill:#fff;fill-rule:nonzero;"></path><path d="M64.701,305.434c-0.332,0.221 -0.785,0.47 -1.357,0.747c-0.572,0.277 -1.242,0.508 -2.008,0.693c-0.766,0.185 -1.602,0.277 -2.507,0.277c-1.551,-0.019 -2.949,-0.296 -4.196,-0.831c-1.246,-0.536 -2.303,-1.265 -3.171,-2.188c-0.868,-0.923 -1.537,-1.99 -2.008,-3.199c-0.471,-1.21 -0.706,-2.498 -0.706,-3.864c0,-1.496 0.244,-2.876 0.733,-4.141c0.49,-1.265 1.178,-2.363 2.064,-3.296c0.886,-0.932 1.934,-1.657 3.144,-2.174c1.209,-0.517 2.534,-0.776 3.974,-0.776c1.2,0 2.29,0.162 3.269,0.485c0.978,0.323 1.818,0.706 2.52,1.15l-1.08,2.492c-0.554,-0.369 -1.224,-0.72 -2.008,-1.052c-0.785,-0.333 -1.658,-0.499 -2.618,-0.499c-0.978,0 -1.902,0.194 -2.769,0.582c-0.868,0.388 -1.635,0.932 -2.299,1.634c-0.665,0.702 -1.187,1.519 -1.565,2.451c-0.379,0.933 -0.568,1.935 -0.568,3.006c0,1.089 0.171,2.1 0.512,3.032c0.342,0.933 0.831,1.741 1.468,2.424c0.637,0.683 1.408,1.219 2.313,1.606c0.905,0.388 1.92,0.582 3.047,0.582c1.015,0 1.92,-0.157 2.714,-0.471c0.794,-0.314 1.45,-0.665 1.967,-1.052l1.135,2.382Z" style="fill:#fff;fill-rule:nonzero;"></path><path d="M67.97,296.931c0,-1.385 0.263,-2.692 0.789,-3.92c0.526,-1.228 1.26,-2.317 2.202,-3.268c0.942,-0.951 2.026,-1.699 3.254,-2.243c1.228,-0.545 2.553,-0.818 3.975,-0.818c1.403,0 2.719,0.273 3.947,0.818c1.228,0.544 2.317,1.292 3.268,2.243c0.951,0.951 1.694,2.04 2.23,3.268c0.535,1.228 0.803,2.535 0.803,3.92c0,1.421 -0.268,2.751 -0.803,3.988c-0.536,1.237 -1.279,2.322 -2.23,3.254c-0.951,0.933 -2.04,1.662 -3.268,2.188c-1.228,0.527 -2.544,0.79 -3.947,0.79c-1.422,0 -2.747,-0.259 -3.975,-0.776c-1.228,-0.517 -2.312,-1.237 -3.254,-2.16c-0.942,-0.923 -1.676,-2.004 -2.202,-3.241c-0.526,-1.237 -0.789,-2.585 -0.789,-4.043Zm2.769,0.027c0,1.053 0.194,2.036 0.582,2.95c0.388,0.914 0.923,1.722 1.606,2.424c0.684,0.701 1.478,1.251 2.382,1.648c0.905,0.397 1.884,0.595 2.936,0.595c1.034,0 2.004,-0.198 2.909,-0.595c0.904,-0.397 1.689,-0.947 2.354,-1.648c0.665,-0.702 1.191,-1.51 1.579,-2.424c0.387,-0.914 0.581,-1.907 0.581,-2.977c0,-1.053 -0.194,-2.045 -0.581,-2.978c-0.388,-0.932 -0.924,-1.75 -1.607,-2.451c-0.683,-0.702 -1.477,-1.251 -2.382,-1.648c-0.905,-0.397 -1.874,-0.596 -2.908,-0.596c-1.053,0 -2.031,0.203 -2.936,0.61c-0.905,0.406 -1.699,0.96 -2.382,1.662c-0.683,0.701 -1.209,1.518 -1.579,2.451c-0.369,0.932 -0.554,1.925 -0.554,2.977Z" style="fill:#fff;fill-rule:nonzero;"></path><path d="M110.291,307.566l-15.483,-15.704l0.776,0.194l0.055,14.873l-2.686,0l0,-20.634l0.138,0l15.317,15.76l-0.637,-0.139l-0.056,-15.012l2.659,0l0,20.662l-0.083,0Z" style="fill:#fff;fill-rule:nonzero;"></path><path d="M126.494,290.477c-0.683,-0.351 -1.431,-0.656 -2.243,-0.914c-0.813,-0.259 -1.607,-0.388 -2.382,-0.388c-1.071,0 -1.925,0.249 -2.562,0.748c-0.637,0.499 -0.956,1.163 -0.956,1.994c0,0.628 0.203,1.159 0.61,1.593c0.406,0.434 0.941,0.808 1.606,1.122c0.665,0.314 1.357,0.609 2.077,0.886c0.628,0.24 1.247,0.508 1.856,0.803c0.609,0.296 1.159,0.665 1.648,1.108c0.489,0.443 0.877,0.988 1.163,1.634c0.287,0.646 0.43,1.45 0.43,2.41c0,1.052 -0.263,2.013 -0.79,2.88c-0.526,0.868 -1.278,1.551 -2.257,2.05c-0.979,0.499 -2.142,0.748 -3.49,0.748c-0.886,0 -1.731,-0.102 -2.534,-0.305c-0.803,-0.203 -1.547,-0.466 -2.23,-0.789c-0.683,-0.323 -1.292,-0.66 -1.828,-1.011l1.191,-2.105c0.443,0.314 0.951,0.614 1.523,0.9c0.573,0.286 1.173,0.517 1.801,0.692c0.628,0.176 1.237,0.264 1.828,0.264c0.628,0 1.251,-0.116 1.869,-0.347c0.619,-0.23 1.131,-0.586 1.538,-1.066c0.406,-0.48 0.609,-1.117 0.609,-1.911c0,-0.683 -0.18,-1.251 -0.54,-1.704c-0.36,-0.452 -0.836,-0.84 -1.427,-1.163c-0.59,-0.323 -1.218,-0.614 -1.883,-0.872c-0.628,-0.24 -1.265,-0.503 -1.911,-0.79c-0.646,-0.286 -1.247,-0.637 -1.801,-1.052c-0.553,-0.416 -0.997,-0.928 -1.329,-1.537c-0.332,-0.61 -0.499,-1.348 -0.499,-2.216c0,-1.053 0.254,-1.971 0.762,-2.756c0.508,-0.785 1.205,-1.403 2.091,-1.856c0.887,-0.452 1.902,-0.697 3.047,-0.734c1.293,0 2.433,0.157 3.421,0.471c0.988,0.314 1.86,0.702 2.617,1.163l-1.025,2.05Z" style="fill:#fff;fill-rule:nonzero;"></path><path d="M130.649,286.904l13.295,0l0,2.576l-5.374,0l0,17.449l-2.686,0l0,-17.449l-5.235,0l0,-2.576Z" style="fill:#fff;fill-rule:nonzero;"></path><path d="M153.527,286.904c1.016,0 1.953,0.134 2.811,0.402c0.859,0.267 1.607,0.664 2.244,1.191c0.637,0.526 1.135,1.172 1.495,1.938c0.36,0.767 0.541,1.658 0.541,2.673c0,0.794 -0.116,1.57 -0.347,2.327c-0.231,0.757 -0.614,1.445 -1.149,2.063c-0.536,0.619 -1.233,1.117 -2.091,1.496c-0.859,0.378 -1.916,0.568 -3.172,0.568l-2.963,0l0,7.367l-2.687,0l0,-20.025l5.318,0Zm0.277,10.082c0.794,0 1.454,-0.12 1.98,-0.36c0.527,-0.24 0.937,-0.55 1.233,-0.928c0.295,-0.379 0.508,-0.789 0.637,-1.233c0.129,-0.443 0.194,-0.858 0.194,-1.246c0,-0.406 -0.069,-0.826 -0.208,-1.26c-0.138,-0.434 -0.36,-0.836 -0.665,-1.205c-0.304,-0.369 -0.701,-0.674 -1.191,-0.914c-0.489,-0.24 -1.084,-0.36 -1.786,-0.36l-3.102,0l0,7.506l2.908,0Zm3.296,1.523l5.235,8.42l-3.102,0l-5.318,-8.337l3.185,-0.083Z" style="fill:#fff;fill-rule:nonzero;"></path><path d="M168.871,299.839c0,0.905 0.217,1.712 0.651,2.423c0.434,0.711 1.011,1.27 1.731,1.676c0.72,0.406 1.533,0.609 2.438,0.609c0.941,0 1.782,-0.203 2.52,-0.609c0.739,-0.406 1.32,-0.965 1.745,-1.676c0.425,-0.711 0.637,-1.518 0.637,-2.423l0,-12.935l2.631,0l0,13.018c0,1.459 -0.337,2.733 -1.011,3.822c-0.673,1.09 -1.578,1.93 -2.714,2.521c-1.135,0.59 -2.405,0.886 -3.808,0.886c-1.404,0 -2.668,-0.296 -3.795,-0.886c-1.126,-0.591 -2.022,-1.431 -2.686,-2.521c-0.665,-1.089 -0.998,-2.363 -0.998,-3.822l0,-13.018l2.659,0l0,12.935Z" style="fill:#fff;fill-rule:nonzero;"></path><path d="M201.416,305.434c-0.332,0.221 -0.785,0.47 -1.357,0.747c-0.573,0.277 -1.242,0.508 -2.008,0.693c-0.767,0.185 -1.602,0.277 -2.507,0.277c-1.551,-0.019 -2.95,-0.296 -4.196,-0.831c-1.247,-0.536 -2.304,-1.265 -3.172,-2.188c-0.867,-0.923 -1.537,-1.99 -2.008,-3.199c-0.47,-1.21 -0.706,-2.498 -0.706,-3.864c0,-1.496 0.245,-2.876 0.734,-4.141c0.489,-1.265 1.177,-2.363 2.064,-3.296c0.886,-0.932 1.934,-1.657 3.143,-2.174c1.21,-0.517 2.535,-0.776 3.975,-0.776c1.2,0 2.289,0.162 3.268,0.485c0.979,0.323 1.819,0.706 2.521,1.15l-1.081,2.492c-0.554,-0.369 -1.223,-0.72 -2.008,-1.052c-0.784,-0.333 -1.657,-0.499 -2.617,-0.499c-0.979,0 -1.902,0.194 -2.77,0.582c-0.868,0.388 -1.634,0.932 -2.299,1.634c-0.664,0.702 -1.186,1.519 -1.565,2.451c-0.378,0.933 -0.567,1.935 -0.567,3.006c0,1.089 0.17,2.1 0.512,3.032c0.342,0.933 0.831,1.741 1.468,2.424c0.637,0.683 1.408,1.219 2.313,1.606c0.904,0.388 1.92,0.582 3.046,0.582c1.016,0 1.921,-0.157 2.715,-0.471c0.794,-0.314 1.449,-0.665 1.966,-1.052l1.136,2.382Z" style="fill:#fff;fill-rule:nonzero;"></path><path d="M220.638,305.434c-0.332,0.221 -0.785,0.47 -1.357,0.747c-0.573,0.277 -1.242,0.508 -2.008,0.693c-0.767,0.185 -1.602,0.277 -2.507,0.277c-1.551,-0.019 -2.95,-0.296 -4.196,-0.831c-1.247,-0.536 -2.304,-1.265 -3.171,-2.188c-0.868,-0.923 -1.538,-1.99 -2.009,-3.199c-0.47,-1.21 -0.706,-2.498 -0.706,-3.864c0,-1.496 0.245,-2.876 0.734,-4.141c0.489,-1.265 1.177,-2.363 2.064,-3.296c0.886,-0.932 1.934,-1.657 3.143,-2.174c1.21,-0.517 2.535,-0.776 3.975,-0.776c1.2,0 2.29,0.162 3.268,0.485c0.979,0.323 1.819,0.706 2.521,1.15l-1.081,2.492c-0.554,-0.369 -1.223,-0.72 -2.008,-1.052c-0.784,-0.333 -1.657,-0.499 -2.617,-0.499c-0.979,0 -1.902,0.194 -2.77,0.582c-0.868,0.388 -1.634,0.932 -2.299,1.634c-0.664,0.702 -1.186,1.519 -1.565,2.451c-0.378,0.933 -0.567,1.935 -0.567,3.006c0,1.089 0.17,2.1 0.512,3.032c0.342,0.933 0.831,1.741 1.468,2.424c0.637,0.683 1.408,1.219 2.313,1.606c0.905,0.388 1.92,0.582 3.046,0.582c1.016,0 1.921,-0.157 2.715,-0.471c0.794,-0.314 1.449,-0.665 1.966,-1.052l1.136,2.382Z" style="fill:#fff;fill-rule:nonzero;"></path><rect x="225.153" y="286.904" width="2.687" height="20.025" style="fill:#fff;fill-rule:nonzero;"></rect><path d="M232.354,296.931c0,-1.385 0.263,-2.692 0.789,-3.92c0.527,-1.228 1.261,-2.317 2.202,-3.268c0.942,-0.951 2.027,-1.699 3.255,-2.243c1.228,-0.545 2.552,-0.818 3.974,-0.818c1.404,0 2.719,0.273 3.947,0.818c1.228,0.544 2.318,1.292 3.268,2.243c0.951,0.951 1.695,2.04 2.23,3.268c0.536,1.228 0.803,2.535 0.803,3.92c0,1.421 -0.267,2.751 -0.803,3.988c-0.535,1.237 -1.279,2.322 -2.23,3.254c-0.95,0.933 -2.04,1.662 -3.268,2.188c-1.228,0.527 -2.543,0.79 -3.947,0.79c-1.422,0 -2.746,-0.259 -3.974,-0.776c-1.228,-0.517 -2.313,-1.237 -3.255,-2.16c-0.941,-0.923 -1.675,-2.004 -2.202,-3.241c-0.526,-1.237 -0.789,-2.585 -0.789,-4.043Zm2.77,0.027c0,1.053 0.194,2.036 0.581,2.95c0.388,0.914 0.924,1.722 1.607,2.424c0.683,0.701 1.477,1.251 2.382,1.648c0.905,0.397 1.883,0.595 2.936,0.595c1.034,0 2.003,-0.198 2.908,-0.595c0.905,-0.397 1.689,-0.947 2.354,-1.648c0.665,-0.702 1.191,-1.51 1.579,-2.424c0.388,-0.914 0.582,-1.907 0.582,-2.977c0,-1.053 -0.194,-2.045 -0.582,-2.978c-0.388,-0.932 -0.923,-1.75 -1.607,-2.451c-0.683,-0.702 -1.477,-1.251 -2.381,-1.648c-0.905,-0.397 -1.875,-0.596 -2.909,-0.596c-1.052,0 -2.031,0.203 -2.936,0.61c-0.904,0.406 -1.698,0.96 -2.382,1.662c-0.683,0.701 -1.209,1.518 -1.578,2.451c-0.37,0.932 -0.554,1.925 -0.554,2.977Zm11.743,-14.79l-3.517,3.711l-1.634,0l2.299,-3.711l2.852,0Z" style="fill:#fff;fill-rule:nonzero;"></path><path d="M274.676,307.566l-15.483,-15.704l0.775,0.194l0.056,14.873l-2.687,0l0,-20.634l0.139,0l15.316,15.76l-0.637,-0.139l-0.055,-15.012l2.659,0l0,20.662l-0.083,0Z" style="fill:#fff;fill-rule:nonzero;"></path></g><path d="M184.628,344.936l-13.502,-28.331c-0.029,-0.061 -0.073,-0.111 -0.106,-0.167c-0.032,-0.058 -0.067,-0.112 -0.104,-0.166c-0.05,-0.071 -0.101,-0.139 -0.159,-0.205c-0.021,-0.024 -0.038,-0.053 -0.06,-0.077l-18.31,-19.222l5.518,-5.255c7.105,2.464 15.009,0.788 20.519,-4.461c4.909,-4.675 7.132,-11.462 5.942,-18.154c-0.148,-0.836 -0.743,-1.523 -1.551,-1.787c-0.803,-0.263 -1.693,-0.064 -2.307,0.522l-8.064,7.68l-8.365,-2.461l-2.049,-8.474l8.064,-7.68c0.614,-0.586 0.857,-1.462 0.633,-2.28c-0.224,-0.818 -0.882,-1.447 -1.71,-1.636c-6.626,-1.514 -13.514,0.375 -18.422,5.051c-5.509,5.248 -7.568,13.064 -5.453,20.278l-5.518,5.256l-26.529,-27.849c-0.879,-0.923 -2.336,-0.958 -3.258,-0.08l-14.137,13.466c-0.922,0.878 -0.958,2.337 -0.079,3.259l26.527,27.849l-7.241,6.896c-7.107,-2.462 -15.012,-0.788 -20.519,4.461c-4.909,4.676 -7.13,11.463 -5.94,18.155c0.148,0.836 0.743,1.522 1.55,1.787c0.806,0.263 1.693,0.064 2.308,-0.522l8.46,-8.057l8.364,2.46l2.052,8.473l-8.462,8.059c-0.615,0.585 -0.857,1.461 -0.633,2.28c0.225,0.819 0.882,1.447 1.709,1.636c1.342,0.306 2.693,0.473 4.038,0.506c5.295,0.129 10.469,-1.827 14.384,-5.556c5.511,-5.249 7.568,-13.064 5.453,-20.28l7.24,-6.897l18.309,19.219c0.027,0.029 0.06,0.049 0.088,0.075c0.053,0.051 0.109,0.098 0.168,0.144c0.066,0.052 0.134,0.1 0.206,0.144c0.046,0.029 0.085,0.068 0.134,0.094l27.641,14.863c0.326,0.177 0.681,0.266 1.035,0.275c0.597,0.014 1.193,-0.205 1.646,-0.635c0.721,-0.686 0.919,-1.76 0.49,-2.659l0,0.003Zm-35.249,-64.495c0.671,-0.638 0.894,-1.617 0.566,-2.483c-2.218,-5.87 -0.715,-12.457 3.827,-16.785c2.596,-2.473 5.91,-3.934 9.385,-4.233l-5.271,5.02c-0.597,0.568 -0.844,1.411 -0.651,2.211l2.676,11.06c0.194,0.801 0.799,1.437 1.589,1.67l10.917,3.212c0.787,0.23 1.644,0.026 2.241,-0.543l5.271,-5.02c-0.468,3.457 -2.089,6.695 -4.685,9.166c-4.544,4.328 -11.195,5.509 -16.951,3.006c-0.848,-0.367 -1.836,-0.195 -2.508,0.445l-6.577,6.265l-6.406,-6.725l6.577,-6.266Zm-25.947,37.542c-0.671,0.639 -0.894,1.617 -0.567,2.484c2.219,5.869 0.718,12.458 -3.826,16.786c-2.596,2.473 -5.91,3.935 -9.384,4.234l5.668,-5.4c0.597,-0.568 0.844,-1.409 0.651,-2.211l-2.677,-11.06c-0.195,-0.8 -0.8,-1.435 -1.589,-1.668l-10.918,-3.213c-0.196,-0.057 -0.397,-0.088 -0.595,-0.093c-0.603,-0.015 -1.198,0.207 -1.645,0.635l-5.667,5.398c0.467,-3.457 2.088,-6.695 4.684,-9.167c4.542,-4.326 11.195,-5.505 16.951,-3.006c0.848,0.37 1.838,0.194 2.508,-0.444l8.3,-7.907l6.406,6.725l-8.3,7.907Zm-22.884,-47.328l10.799,-10.286l54.421,57.134l-10.801,10.287l-54.419,-57.135Zm67.785,50.805l6.659,13.97l-2.563,2.441l-13.63,-7.33l9.534,-9.081Z" style="fill:#fff;fill-opacity:0.25;fill-rule:nonzero;"></path></svg>