<?xml version="1.0" encoding="UTF-8" standalone="no"?><!DOCTYPE svg PUBLIC "-//W3C//DTD SVG 1.1//EN" "http://www.w3.org/Graphics/SVG/1.1/DTD/svg11.dtd"><svg width="100%" height="100%" viewBox="0 0 44 39" version="1.1" xmlns="http://www.w3.org/2000/svg" xmlns:xlink="http://www.w3.org/1999/xlink" xml:space="preserve" xmlns:serif="http://www.serif.com/" style="fill-rule:evenodd;clip-rule:evenodd;stroke-linejoin:round;stroke-miterlimit:2;"><path d="M6.075,29.25l7.425,0c0.825,0 1.5,-0.675 1.5,-1.5l0,-11.25c0,-0.825 -0.675,-1.5 -1.5,-1.5l-4.5,0c0.375,-6.75 5.925,-12 12.75,-12c6.825,0 12.375,5.25 12.75,12l-4.5,0c-0.825,0 -1.5,0.675 -1.5,1.5l0,11.25c0,0.825 0.675,1.5 1.5,1.5l4.35,0c-0.225,0.975 -0.6,2.175 -1.35,2.925c-0.6,0.6 -1.275,0.825 -2.175,0.825l-2.625,0c-0.6,-1.35 -1.875,-2.25 -3.45,-2.25l-6,0c-2.1,0 -3.75,1.65 -3.75,3.75c0,2.1 1.65,3.75 3.75,3.75l6,0c1.5,0 2.85,-0.9 3.45,-2.25l2.625,0c1.725,0 3.225,-0.6 4.35,-1.725c1.5,-1.5 2.025,-3.6 2.25,-5.025l0.075,0c3.375,0 6.075,-2.7 6.075,-6.075l0,-2.1c0,-3.3 -2.7,-6 -6,-6.075c-0.45,-8.4 -7.35,-15 -15.825,-15c-8.475,0 -15.375,6.6 -15.75,15c-3.3,0 -6,2.775 -6,6.075l0,2.1c0,3.375 2.7,6.075 6.075,6.075Zm18.675,6l-6,0c-0.375,0 -0.75,-0.375 -0.75,-0.75c0,-0.375 0.375,-0.75 0.75,-0.75l6,0c0.375,0 0.75,0.375 0.75,0.75c0,0.375 -0.375,0.75 -0.75,0.75Zm6.75,-17.25l1.5,0l0,8.25l-1.5,0l0,-8.25Zm9,3.075l0,2.1c0,1.725 -1.35,3.075 -3.075,3.075l-1.425,0l0,-8.25l1.425,0c1.725,0 3.075,1.35 3.075,3.075Zm-28.5,5.175l-1.5,0l0,-8.25l1.5,0l0,8.25Zm-9,-5.175c0,-1.725 1.35,-3.075 3.075,-3.075l1.425,0l0,8.25l-1.425,0c-1.725,0 -3.075,-1.35 -3.075,-3.075l0,-2.1Z" style="fill:#b06d86;fill-rule:nonzero;"/></svg>